<svg width="96" height="70" viewBox="0 0 96 70" fill="none" xmlns="http://www.w3.org/2000/svg">
<g clip-path="url(#clip0_227_2294)">
<path d="M69.9729 62.4984C69.3694 62.7108 68.7213 62.764 68.0913 62.6529C67.4612 62.5418 66.8704 62.2702 66.3757 61.8641C65.1157 60.8055 64.7206 59.0621 64.3993 57.4473L63.4486 52.6709L65.439 54.0427C66.8704 55.0293 68.334 56.0475 69.325 57.4765C70.3161 58.9054 70.7484 60.8562 69.9524 62.4025" fill="#1E2A7B"/>
<path d="M69.6655 68.6138C69.916 66.7869 70.1738 64.9363 69.9976 63.0898C69.8415 61.4498 69.3417 59.8484 68.3241 58.5347C67.784 57.8389 67.1267 57.2427 66.3819 56.773C66.1877 56.6503 66.009 56.9583 66.2023 57.0805C67.4911 57.8957 68.4879 59.0996 69.0491 60.5185C69.6688 62.0963 69.7684 63.8164 69.6616 65.4926C69.5971 66.5062 69.46 67.5132 69.3223 68.519C69.3114 68.5644 69.3182 68.6124 69.3412 68.653C69.3643 68.6937 69.402 68.7241 69.4466 68.738C69.4921 68.7503 69.5406 68.7441 69.5815 68.7208C69.6225 68.6975 69.6526 68.659 69.6654 68.6136L69.6655 68.6138Z" fill="#F2F2F2"/>
<path d="M67.8624 65.6822C67.6036 66.076 67.2478 66.3966 66.8293 66.6129C66.4108 66.8291 65.9437 66.9339 65.4731 66.917C64.2632 66.8595 63.255 66.0146 62.3474 65.2122L59.6626 62.8393L61.4394 62.7542C62.7173 62.6929 64.0281 62.6355 65.2452 63.0304C66.4623 63.4253 67.5848 64.3742 67.8073 65.6353" fill="#E6E6E6"/>
<path d="M70.3736 69.6637C69.1676 67.5276 67.7687 65.1535 65.269 64.3947C64.5741 64.1845 63.8454 64.1091 63.1221 64.1728C62.8941 64.1925 62.9511 64.5442 63.1786 64.5246C64.3909 64.4239 65.6009 64.7443 66.6049 65.432C67.571 66.0902 68.3233 67.0054 68.9599 67.9758C69.3499 68.5703 69.6992 69.19 70.0485 69.8088C70.1601 70.0066 70.4866 69.8638 70.3736 69.6637Z" fill="#F2F2F2"/>
<path d="M43.2818 44.8313C46.8981 44.8313 49.8296 41.8968 49.8296 38.277C49.8296 34.6571 46.8981 31.7227 43.2818 31.7227C39.6656 31.7227 36.734 34.6571 36.734 38.277C36.734 41.8968 39.6656 44.8313 43.2818 44.8313Z" fill="white"/>
<path d="M48.5454 47.0312C46.4957 47.0312 44.492 46.4218 42.7877 45.2801C41.0834 44.1384 39.7551 42.5156 38.9707 40.6169C38.1863 38.7183 37.981 36.6291 38.3809 34.6135C38.7808 32.5979 39.7678 30.7465 41.2172 29.2933C42.6666 27.8402 44.5132 26.8506 46.5236 26.4497C48.5339 26.0487 50.6177 26.2545 52.5114 27.0409C54.4051 27.8274 56.0237 29.1592 57.1624 30.8679C58.3012 32.5766 58.909 34.5856 58.909 36.6406C58.9059 39.3954 57.813 42.0365 55.8702 43.9845C53.9273 45.9324 51.2931 47.0281 48.5454 47.0312ZM48.5454 26.592C46.5631 26.592 44.6254 27.1814 42.9772 28.2855C41.329 29.3897 40.0444 30.9591 39.2858 32.7952C38.5272 34.6313 38.3288 36.6518 38.7155 38.601C39.1022 40.5502 40.0568 42.3407 41.4584 43.7461C42.8601 45.1514 44.6459 46.1084 46.5901 46.4961C48.5343 46.8839 50.5495 46.6849 52.3808 45.9243C54.2122 45.1638 55.7775 43.8758 56.8788 42.2233C57.9801 40.5708 58.5679 38.628 58.5679 36.6406C58.5649 33.9765 57.508 31.4223 55.6291 29.5385C53.7501 27.6547 51.2026 26.595 48.5454 26.592Z" fill="#3F3D56"/>
<path d="M46.6529 44.8438L46.5857 44.813C46.5472 44.7954 45.6452 44.3616 45.9693 42.5675L45.9751 42.5477L46.0952 42.2625C46.448 41.4216 46.6205 40.5076 46.6002 39.587C45.8752 39.5691 42.1591 39.4568 41.7241 39.0268C41.5784 38.8832 41.4904 38.6853 41.4783 38.4743L41.4561 38.097C41.4494 37.9814 41.4649 37.8656 41.5017 37.7567C41.5386 37.6477 41.5961 37.548 41.6705 37.4636C41.745 37.3792 41.8349 37.3119 41.9347 37.266C42.0345 37.22 42.1421 37.1963 42.2508 37.1963H42.4648L42.3133 37.0119C42.192 36.8644 42.1252 36.675 42.1252 36.4789V36.1668C42.1253 36.0224 42.1615 35.8807 42.2303 35.7564C42.299 35.632 42.3978 35.5294 42.5163 35.4593L42.6379 35.3873L42.5679 35.3128C42.4698 35.2084 42.4004 35.0774 42.3673 34.9339C42.3341 34.7905 42.3385 34.6402 42.3798 34.4992C42.4212 34.3582 42.498 34.232 42.6019 34.1341C42.7059 34.0363 42.833 33.9706 42.9694 33.9442L43.765 33.7901C43.7816 33.486 43.8984 33.198 44.0949 32.9766C44.2913 32.7552 44.5549 32.6148 44.839 32.58L47.1131 32.3007C48.2895 32.0774 49.4884 32.0209 50.6787 32.1328L51.0269 32.1656L54.5455 31.7188V36.727L51.2917 37.2025L48.5514 40.5843C48.0893 42.0111 47.4857 43.3814 46.7508 44.672L46.6529 44.8438Z" fill="#FFB7B7"/>
<path opacity="0.2" d="M41.983 43.0111L41.8829 42.9662L42.227 42.1963L42.6301 42.3207L42.5979 42.4254L42.2875 42.3298L41.983 43.0111Z" fill="black"/>
<path d="M37.9089 35.8753L37.2081 26.1421L37.3414 22.8936L34.6097 23.502L35.6159 36.2556C35.502 36.4907 35.4548 36.7526 35.4795 37.0128C35.5043 37.273 35.6 37.5213 35.7562 37.7306C35.9125 37.94 36.1232 38.1023 36.3654 38.1999C36.6076 38.2974 36.872 38.3264 37.1295 38.2837C37.3871 38.241 37.628 38.1282 37.8258 37.9577C38.0236 37.7872 38.1708 37.5655 38.2513 37.3169C38.3317 37.0683 38.3424 36.8023 38.282 36.5481C38.2216 36.2938 38.0925 36.0611 37.9089 35.8753Z" fill="#FFB7B7"/>
<path d="M24.4765 26.9223L24.3028 23.6612L22.5497 22.2354L21.534 25.2552L15.8537 32.8387C15.5852 32.8817 15.3345 33.0009 15.1315 33.1821C14.9285 33.3633 14.7816 33.5988 14.7082 33.861C14.6347 34.1231 14.6378 34.4008 14.7171 34.6613C14.7964 34.9217 14.9486 35.1539 15.1556 35.3305C15.3626 35.5071 15.6158 35.6206 15.8853 35.6576C16.1547 35.6947 16.4291 35.6537 16.676 35.5395C16.9229 35.4253 17.132 35.2427 17.2785 35.0133C17.425 34.7839 17.5027 34.5173 17.5026 34.2451C17.5026 34.2259 17.5005 34.2072 17.4997 34.1882L24.4765 26.9223Z" fill="#FFB7B7"/>
<path d="M24.7908 25.8785L20.5118 21.307L23.689 14.6528C23.7533 14.5164 23.8443 14.3945 23.9567 14.2941C24.0692 14.1938 24.2006 14.1172 24.3433 14.069C24.4836 14.0208 24.6321 14.0015 24.78 14.0121C24.9279 14.0228 25.0722 14.0631 25.2041 14.1309L25.2354 14.1467L24.7908 25.8785Z" fill="#1E2A7B"/>
<path d="M34.3395 25.1579L33.5795 20.6976L33.5824 20.6863L35.3793 13.6154L35.5476 13.5958C36.0331 13.5422 36.5211 13.6719 36.9162 13.9594C37.3113 14.2469 37.585 14.6716 37.6838 15.1504L39.3771 23.5891L34.3395 25.1579Z" fill="#1E2A7B"/>
<path d="M35.3075 11.706H26.2133V7.59313C26.2133 6.38596 26.6923 5.22824 27.5451 4.37465C28.3978 3.52105 29.5544 3.0415 30.7604 3.0415C31.9663 3.0415 33.1229 3.52105 33.9757 4.37465C34.8284 5.22824 35.3075 6.38596 35.3075 7.59313V11.706Z" fill="#2F2E41"/>
<path d="M46.9255 62.9371L45.3864 64.2338L39.6576 58.9084L41.9292 56.9946L46.9255 62.9371Z" fill="#FFB7B7"/>
<path d="M48.5737 64.0999L43.611 68.2809L43.5582 68.2181C43.127 67.7053 42.917 67.0421 42.9744 66.3743C43.0317 65.7065 43.3517 65.0889 43.8639 64.6572L43.8641 64.6571L46.8951 62.1035L48.5737 64.0999Z" fill="#2F2E41"/>
<path d="M23.8557 67.9742L21.8442 67.9741L20.8871 60.207L23.8562 60.2071L23.8557 67.9742Z" fill="#FFB7B7"/>
<path d="M24.3688 69.926L17.8823 69.9257V69.8436C17.8824 69.1734 18.1484 68.5306 18.6219 68.0566C19.0953 67.5827 19.7375 67.3164 20.407 67.3164H20.4072L24.3689 67.3166L24.3688 69.926Z" fill="#2F2E41"/>
<path d="M15.0333 66.0247L16.0347 54.5517C16.5426 48.7411 17.7378 43.0113 19.5951 37.4828L23.7883 25.007L24.1545 22.1016C23.0388 19.7857 24.2205 18.0218 24.3566 17.8315L24.2111 14.9454C24.2083 14.8886 24.2042 14.8338 24.2004 14.7809C24.1587 14.2138 24.189 13.887 25.2944 13.7646L34.4664 13.4815C35.6269 13.4767 36.3306 13.6698 36.6164 14.0817C36.9453 14.5556 36.6844 15.2424 36.432 15.9065C36.4058 15.9756 36.3795 16.0447 36.3539 16.1138L32.7209 25.8782C34.479 29.2803 34.1401 34.4833 34.1365 34.5356L34.2653 36.0744L47.6014 57.8901L39.7163 65.2603L39.6812 65.2031L26.9793 44.5276L26.8701 65.3664L26.8187 65.3693L15.0333 66.0247Z" fill="#2F2E41"/>
<path d="M33.9168 9.89392C34.9014 8.09102 34.2395 5.83053 32.4384 4.84497C30.6372 3.85942 28.379 4.52201 27.3944 6.32491C26.4099 8.12781 27.0718 10.3883 28.8729 11.3739C30.674 12.3594 32.9323 11.6968 33.9168 9.89392Z" fill="#FFB7B7"/>
<path d="M32.4499 4.95308C33.8163 4.95308 34.924 3.8443 34.924 2.47654C34.924 1.10879 33.8163 0 32.4499 0C31.0835 0 29.9758 1.10879 29.9758 2.47654C29.9758 3.8443 31.0835 4.95308 32.4499 4.95308Z" fill="#2F2E41"/>
<path d="M35.7457 8.30617H26.6515V8.25133C26.6515 7.04417 27.1306 5.88644 27.9833 5.03285C28.8361 4.17925 29.9926 3.69971 31.1986 3.69971C32.4046 3.69971 33.5611 4.17925 34.4139 5.03285C35.2666 5.88644 35.7457 7.04417 35.7457 8.25133V8.30617Z" fill="#2F2E41"/>
<path opacity="0.2" d="M13.2191 25.1443L12.816 25.02L12.8483 24.9152L13.1587 25.0109L13.4633 24.3296L13.5633 24.3743L13.2191 25.1443Z" fill="black"/>
<path d="M95.8904 70.0001H0.109569C0.0805094 70.0001 0.05264 69.9886 0.0320919 69.968C0.0115437 69.9474 0 69.9195 0 69.8904C0 69.8614 0.0115437 69.8334 0.0320919 69.8129C0.05264 69.7923 0.0805094 69.7808 0.109569 69.7808H95.8904C95.9195 69.7808 95.9474 69.7923 95.9679 69.8129C95.9885 69.8334 96 69.8614 96 69.8904C96 69.9195 95.9885 69.9474 95.9679 69.968C95.9474 69.9886 95.9195 70.0001 95.8904 70.0001Z" fill="#CBCBCB"/>
</g>
<defs>
<clipPath id="clip0_227_2294">
<rect width="96" height="70" fill="white"/>
</clipPath>
</defs>
</svg>
