<svg width="39" height="39" viewBox="0 0 39 39" fill="none" xmlns="http://www.w3.org/2000/svg">
<path d="M26 35.75C23.2917 35.75 20.9896 34.8021 19.0938 32.9062C17.1979 31.0104 16.25 28.7083 16.25 26C16.25 23.2917 17.1979 20.9896 19.0938 19.0938C20.9896 17.1979 23.2917 16.25 26 16.25C28.7083 16.25 31.0104 17.1979 32.9062 19.0938C34.8021 20.9896 35.75 23.2917 35.75 26C35.75 28.7083 34.8021 31.0104 32.9062 32.9062C31.0104 34.8021 28.7083 35.75 26 35.75ZM26 32.5C27.7875 32.5 29.3177 31.8635 30.5906 30.5906C31.8635 29.3177 32.5 27.7875 32.5 26C32.5 24.2125 31.8635 22.6823 30.5906 21.4094C29.3177 20.1365 27.7875 19.5 26 19.5C24.2125 19.5 22.6823 20.1365 21.4094 21.4094C20.1365 22.6823 19.5 24.2125 19.5 26C19.5 27.7875 20.1365 29.3177 21.4094 30.5906C22.6823 31.8635 24.2125 32.5 26 32.5ZM6.5 32.5C5.60625 32.5 4.84142 32.182 4.2055 31.5461C3.56958 30.9102 3.25108 30.1448 3.25 29.25V16.9C3.25 16.6833 3.27058 16.4667 3.31175 16.25C3.35292 16.0333 3.41358 15.8167 3.49375 15.6L6.74375 8.125H6.5C6.03958 8.125 5.65392 7.969 5.343 7.657C5.03208 7.345 4.87608 6.95933 4.875 6.5V4.875C4.875 4.41458 5.031 4.02892 5.343 3.718C5.655 3.40708 6.04067 3.25108 6.5 3.25H17.875C18.3354 3.25 18.7216 3.406 19.0336 3.718C19.3456 4.03 19.5011 4.41567 19.5 4.875V6.5C19.5 6.96042 19.344 7.34662 19.032 7.65862C18.72 7.97062 18.3343 8.12608 17.875 8.125H17.6313L20.3125 14.3C19.7979 14.5708 19.3104 14.8552 18.85 15.1531C18.3896 15.451 17.9563 15.7896 17.55 16.1687L14.1375 8.125H10.2375L6.5 16.9V29.25H13.4062C13.5417 29.8188 13.7242 30.381 13.9539 30.9368C14.1835 31.4925 14.4614 32.0136 14.7875 32.5H6.5ZM26 14.625C24.8625 14.625 23.901 14.2323 23.1156 13.4469C22.3302 12.6615 21.9375 11.7 21.9375 10.5625C21.9375 9.425 22.3302 8.46354 23.1156 7.67812C23.901 6.89271 24.8625 6.5 26 6.5V14.625ZM26 14.625C26 13.4875 26.3927 12.526 27.1781 11.7406C27.9635 10.9552 28.925 10.5625 30.0625 10.5625C31.2 10.5625 32.1615 10.9552 32.9469 11.7406C33.7323 12.526 34.125 13.4875 34.125 14.625H26Z" fill="white"/>
</svg>
