<svg width="19" height="19" viewBox="0 0 19 19" fill="none" xmlns="http://www.w3.org/2000/svg">
<path d="M11.9836 0C10.7875 0 9.82233 -1.30385e-08 9.06371 0.102375C8.27621 0.207375 7.61296 0.434875 7.08621 0.96075C6.62771 1.42013 6.39496 1.9845 6.27333 2.64775C6.15521 3.29262 6.13246 4.081 6.12721 5.02775C6.12628 5.2018 6.19453 5.36909 6.31694 5.49281C6.43936 5.61654 6.60591 5.68657 6.77996 5.6875C6.95401 5.68843 7.12129 5.62018 7.24502 5.49776C7.36875 5.37535 7.43878 5.2088 7.43971 5.03475C7.44496 4.07838 7.46946 3.40025 7.56396 2.88487C7.65583 2.38963 7.80196 2.10175 8.01458 1.88912C8.25696 1.64675 8.59733 1.48925 9.23958 1.40262C9.90021 1.31425 10.7761 1.3125 12.0317 1.3125H12.9067C14.1632 1.3125 15.0391 1.31425 15.6997 1.40262C16.342 1.48925 16.6815 1.64762 16.9247 1.88912C17.1662 2.1315 17.3237 2.471 17.4103 3.11413C17.4996 3.77387 17.5005 4.65063 17.5005 5.90625V12.9062C17.5005 14.1619 17.4996 15.0377 17.4103 15.6992C17.3237 16.3415 17.1662 16.681 16.9238 16.9234C16.6815 17.1658 16.342 17.3232 15.6997 17.4099C15.0391 17.4982 14.1632 17.5 12.9067 17.5H12.0317C10.7761 17.5 9.90021 17.4982 9.23871 17.4099C8.59733 17.3232 8.25696 17.1649 8.01458 16.9234C7.80196 16.7099 7.65583 16.4229 7.56396 15.9276C7.46946 15.4122 7.44496 14.7341 7.43971 13.7778C7.43925 13.6916 7.42182 13.6063 7.38841 13.5269C7.35501 13.4474 7.30628 13.3753 7.24502 13.3147C7.18376 13.2541 7.11116 13.2062 7.03136 13.1736C6.95156 13.1411 6.86614 13.1245 6.77996 13.125C6.69378 13.1255 6.60853 13.1429 6.52909 13.1763C6.44964 13.2097 6.37756 13.2584 6.31694 13.3197C6.25633 13.3809 6.20838 13.4536 6.17582 13.5333C6.14327 13.6131 6.12675 13.6986 6.12721 13.7847C6.13246 14.7315 6.15521 15.5199 6.27333 16.1648C6.39583 16.828 6.62771 17.3924 7.08708 17.8517C7.61296 18.3785 8.27708 18.6042 9.06458 18.711C9.82233 18.8125 10.7875 18.8125 11.9836 18.8125H12.9548C14.1518 18.8125 15.1161 18.8125 15.8747 18.711C16.6622 18.6042 17.3255 18.3785 17.8522 17.8517C18.379 17.325 18.6047 16.6618 18.7115 15.8743C18.813 15.1156 18.813 14.1505 18.813 12.9544V5.85813C18.813 4.662 18.813 3.69687 18.7115 2.93825C18.6056 2.15075 18.379 1.4875 17.8522 0.96075C17.3255 0.434 16.6622 0.20825 15.8747 0.102375C15.1161 -1.30385e-08 14.151 0 12.9548 0H11.9836Z" fill="#727791"/>
<path d="M12.0317 8.75007C12.2058 8.75007 12.3727 8.81921 12.4958 8.94228C12.6188 9.06536 12.688 9.23228 12.688 9.40632C12.688 9.58037 12.6188 9.74729 12.4958 9.87036C12.3727 9.99343 12.2058 10.0626 12.0317 10.0626H2.43036L4.14624 11.5326C4.27851 11.6458 4.36039 11.807 4.37384 11.9806C4.3873 12.1542 4.33124 12.326 4.21799 12.4583C4.10474 12.5906 3.94358 12.6725 3.76997 12.6859C3.59636 12.6994 3.42451 12.6433 3.29224 12.5301L0.229738 9.90507C0.157695 9.84346 0.0998544 9.76698 0.0601952 9.68088C0.020536 9.59478 0 9.50112 0 9.40632C0 9.31153 0.020536 9.21786 0.0601952 9.13176C0.0998544 9.04567 0.157695 8.96918 0.229738 8.90757L3.29224 6.28257C3.35773 6.2265 3.43363 6.18387 3.5156 6.15713C3.59757 6.13039 3.68401 6.12006 3.76997 6.12672C3.85594 6.13338 3.93975 6.15691 4.01662 6.19596C4.09349 6.23502 4.16191 6.28883 4.21799 6.35432C4.27406 6.41982 4.31669 6.49572 4.34343 6.57769C4.37017 6.65966 4.3805 6.74609 4.37384 6.83206C4.36718 6.91802 4.34365 7.00183 4.3046 7.0787C4.26555 7.15557 4.21173 7.224 4.14624 7.28007L2.43124 8.75007H12.0317Z" fill="#81859D"/>
</svg>
