<svg width="32" height="32" viewBox="0 0 32 32" fill="none" xmlns="http://www.w3.org/2000/svg">
<path d="M3 16.0001L14.94 4.06008C15.0792 3.92083 15.2444 3.81037 15.4263 3.73501C15.6082 3.65964 15.8031 3.62085 16 3.62085C16.1969 3.62085 16.3918 3.65964 16.5737 3.73501C16.7556 3.81037 16.9208 3.92083 17.06 4.06008L29 16.0001M6 13.0001V26.5001C6 27.3281 6.672 28.0001 7.5 28.0001H13V21.5001C13 20.6721 13.672 20.0001 14.5 20.0001H17.5C18.328 20.0001 19 20.6721 19 21.5001V28.0001H24.5C25.328 28.0001 26 27.3281 26 26.5001V13.0001M11 28.0001H22" stroke="#0CBBC7" stroke-width="1.5" stroke-linecap="round" stroke-linejoin="round"/>
</svg>
