<svg width="32" height="32" viewBox="0 0 32 32" fill="none" xmlns="http://www.w3.org/2000/svg">
<path d="M22.6666 5.33325H9.33329C7.86053 5.33325 6.66663 6.52716 6.66663 7.99992V25.3333C6.66663 26.806 7.86053 27.9999 9.33329 27.9999H22.6666C24.1394 27.9999 25.3333 26.806 25.3333 25.3333V7.99992C25.3333 6.52716 24.1394 5.33325 22.6666 5.33325Z" stroke="#6F8381"/>
<path d="M22.6666 5.33325H9.33329C7.86053 5.33325 6.66663 6.52716 6.66663 7.99992V25.3333C6.66663 26.806 7.86053 27.9999 9.33329 27.9999H22.6666C24.1394 27.9999 25.3333 26.806 25.3333 25.3333V7.99992C25.3333 6.52716 24.1394 5.33325 22.6666 5.33325Z" stroke="black" stroke-opacity="0.2"/>
<path d="M12 12H20M12 17.3333H20M12 22.6667H17.3333" stroke="#6F8381" stroke-linecap="round"/>
<path d="M12 12H20M12 17.3333H20M12 22.6667H17.3333" stroke="black" stroke-opacity="0.2" stroke-linecap="round"/>
</svg>
