<svg width="32" height="32" viewBox="0 0 32 32" fill="none" xmlns="http://www.w3.org/2000/svg">
<path d="M2.66663 10.6666C2.66663 10.313 2.8071 9.97382 3.05715 9.72378C3.3072 9.47373 3.64634 9.33325 3.99996 9.33325H28C28.3536 9.33325 28.6927 9.47373 28.9428 9.72378C29.1928 9.97382 29.3333 10.313 29.3333 10.6666C29.3333 11.0202 29.1928 11.3593 28.9428 11.6094C28.6927 11.8594 28.3536 11.9999 28 11.9999H3.99996C3.64634 11.9999 3.3072 11.8594 3.05715 11.6094C2.8071 11.3593 2.66663 11.0202 2.66663 10.6666ZM2.66663 15.9999C2.66663 15.6463 2.8071 15.3072 3.05715 15.0571C3.3072 14.8071 3.64634 14.6666 3.99996 14.6666H28C28.3536 14.6666 28.6927 14.8071 28.9428 15.0571C29.1928 15.3072 29.3333 15.6463 29.3333 15.9999C29.3333 16.3535 29.1928 16.6927 28.9428 16.9427C28.6927 17.1928 28.3536 17.3333 28 17.3333H3.99996C3.64634 17.3333 3.3072 17.1928 3.05715 16.9427C2.8071 16.6927 2.66663 16.3535 2.66663 15.9999ZM3.99996 19.9999C3.64634 19.9999 3.3072 20.1404 3.05715 20.3904C2.8071 20.6405 2.66663 20.9796 2.66663 21.3333C2.66663 21.6869 2.8071 22.026 3.05715 22.2761C3.3072 22.5261 3.64634 22.6666 3.99996 22.6666H20C20.3536 22.6666 20.6927 22.5261 20.9428 22.2761C21.1928 22.026 21.3333 21.6869 21.3333 21.3333C21.3333 20.9796 21.1928 20.6405 20.9428 20.3904C20.6927 20.1404 20.3536 19.9999 20 19.9999H3.99996Z" fill="#526D6B"/>
</svg>
