<svg width="14" height="13" viewBox="0 0 14 13" fill="none" xmlns="http://www.w3.org/2000/svg">
<path d="M6.77877 11.7372C9.51718 11.7372 11.7371 9.5173 11.7371 6.77889C11.7371 4.04048 9.51718 1.82056 6.77877 1.82056C4.04036 1.82056 1.82043 4.04048 1.82043 6.77889C1.82043 9.5173 4.04036 11.7372 6.77877 11.7372Z" stroke="#6C63FF"/>
<path d="M2.504 0.500244C2.02347 0.628942 1.58529 0.881889 1.23353 1.23365C0.881767 1.58541 0.62882 2.02359 0.500122 2.50412M11.0536 0.500244C11.5341 0.628942 11.9723 0.881889 12.324 1.23365C12.6758 1.58541 12.9288 2.02359 13.0575 2.50412M6.77879 3.94558V6.60183C6.77879 6.69958 6.85812 6.77891 6.95587 6.77891H8.90379" stroke="#6C63FF" stroke-linecap="round"/>
</svg>
